<?xml version="1.0" encoding="UTF-8"?>
<svg width="515px" height="526px" viewBox="0 0 515 526" version="1.1" xmlns="http://www.w3.org/2000/svg" xmlns:xlink="http://www.w3.org/1999/xlink">
    <!-- Generator: Sketch 58 (84663) - https://sketch.com -->
    <title>logomark 3 color@1x</title>
    <desc>Created with Sketch.</desc>
    <g id="logomark-3-color" stroke="none" stroke-width="1" fill="none" fill-rule="evenodd">
        <g id="Group-4-Copy">
            <rect id="Rectangle-Copy-14" fill="#50E3C2" x="99" y="174" width="96" height="171"></rect>
            <rect id="Rectangle-Copy-15" fill="#50E3C2" x="294" y="159" width="132" height="183"></rect>
            <path d="M257.111457,-3.41060513e-13 L514.83518,97.9291828 L426.662705,384.925973 L257.111457,523.375011 L257.111457,-3.41060513e-13 Z M325.005368,191.851713 L316.15053,327.185088 L342.260118,320.354242 L346.76138,275.0979 L359.819245,308.584813 L381.478219,270.054685 L375.394259,311.068262 L400.988496,303.408898 L421.10563,198.266563 L397.336182,197.338615 L368.027552,241.953268 L349.629758,194.154133 L325.005368,191.851713 Z" id="Combined-Shape-Copy" fill="#283D3B"></path>
            <path d="M-8.52651283e-14,104.033804 L257.111457,2.27373675e-13 L257.111457,525.162709 L84.6430557,384 L-8.52651283e-14,104.033804 Z M121.515984,278.066558 L127.423983,314.398418 C129.738184,315.936511 132.257503,317.433215 134.982945,318.886459 C137.344125,320.230748 140.030611,321.595474 143.043535,322.978623 C146.056428,324.365332 149.289783,325.60815 152.746627,326.699491 C158.486184,328.494373 163.337955,328.914717 167.313486,327.923554 C171.315034,326.864643 174.501732,324.686357 176.872965,321.387948 C179.269689,318.02017 180.904217,313.699639 181.768963,308.446219 C182.649245,303.149699 182.843432,297.296515 182.339835,290.918883 C181.859129,284.831144 180.766223,279.245594 179.052056,274.188065 C177.325897,269.165128 175.334179,264.653709 173.076112,260.656476 C170.805196,256.697377 168.361417,253.187715 165.746016,250.124385 C163.119668,247.094925 160.71727,244.451233 158.541907,242.183652 C156.35993,239.936963 154.501791,237.989476 152.969773,236.333676 C151.434319,234.688727 150.605028,233.331839 150.48444,232.254853 C150.348779,231.043243 150.546162,230.101827 151.077315,229.428656 C151.609429,228.752923 152.265929,228.277398 153.046661,228.002688 C153.828122,227.726243 154.671862,227.549958 155.577742,227.474377 C156.484129,227.397793 157.242181,227.356099 157.85167,227.349827 C158.969514,227.337566 160.043947,227.394144 161.074725,227.520267 C162.105712,227.646341 163.035102,227.773716 163.862832,227.902504 C164.89434,228.028568 165.82416,228.156043 166.65223,228.285037 L163.037095,188.771691 C160.778755,188.607763 158.468415,188.450571 156.106137,188.299958 C154.075016,188.251592 151.778071,188.198018 149.215705,188.138943 C146.654974,188.078928 144.114992,188.185592 141.596872,188.455527 C136.779504,188.95751 132.365493,190.2227 128.36237,192.226371 C124.381185,194.17704 121.067863,196.757448 118.423082,199.961411 C115.800975,203.104525 113.977923,206.896664 112.949325,211.34819 C111.937114,215.752914 111.900776,220.781166 112.828075,226.468103 C113.656724,231.550047 115.081606,236.093897 117.095158,240.123274 C119.098523,244.184041 121.395543,247.908336 123.985173,251.300577 C126.563,254.730167 129.219491,257.83728 131.956335,260.617669 C134.683356,263.429908 137.225219,266.031824 139.584067,268.416847 C141.935707,270.825093 143.89454,273.010264 145.462997,274.96455 C147.027338,276.93168 147.912903,278.77493 148.122822,280.484698 C148.671842,284.956399 146.763177,286.79404 142.402348,285.988173 C139.940819,285.527077 137.478809,284.875876 135.014737,284.038887 C132.551046,283.203606 130.328792,282.295276 128.346824,281.316262 C126.005386,280.393312 123.72889,279.308912 121.515984,278.066558 Z" id="Combined-Shape-Copy-2" fill="#000000"></path>
        </g>
    </g>
</svg>