<?xml version="1.0" encoding="UTF-8"?>
<svg width="1005px" height="705px" viewBox="0 0 1005 705" version="1.1" xmlns="http://www.w3.org/2000/svg" xmlns:xlink="http://www.w3.org/1999/xlink">
    <!-- Generator: Sketch 58 (84663) - https://sketch.com -->
    <title>Logo stacked@1x</title>
    <desc>Created with Sketch.</desc>
    <g id="Logo-stacked" stroke="none" stroke-width="1" fill="none" fill-rule="evenodd">
        <g id="Group-2-Copy">
            <rect id="Rectangle-Copy-6" fill="#50E3C2" x="309" y="174" width="96" height="171"></rect>
            <rect id="Rectangle-Copy-7" fill="#50E3C2" x="504" y="159" width="132" height="183"></rect>
            <text id="Supermachine-Copy-5" fill="#283D3B" font-family="Phosphate-Solid, Phosphate" font-size="150" font-weight="normal">
                <tspan x="0" y="666">SUPERMACHINE</tspan>
            </text>
            <path d="M467.111457,-4.54747351e-13 L724.83518,97.9291828 L636.662705,384.925973 L467.111457,523.375011 L467.111457,-4.54747351e-13 Z M535.005368,191.851713 L526.15053,327.185088 L552.260118,320.354242 L556.76138,275.0979 L569.819245,308.584813 L591.478219,270.054685 L585.394259,311.068262 L610.988496,303.408898 L631.10563,198.266563 L607.336182,197.338615 L578.027552,241.953268 L559.629758,194.154133 L535.005368,191.851713 Z" id="Combined-Shape" fill="#283D3B"></path>
            <path d="M210,104.033804 L467.111457,0 L467.111457,525.162709 L294.643056,384 L210,104.033804 Z M331.515984,278.066558 L337.423983,314.398418 C339.738184,315.936511 342.257503,317.433215 344.982945,318.886459 C347.344125,320.230748 350.030611,321.595474 353.043535,322.978623 C356.056428,324.365332 359.289783,325.60815 362.746627,326.699491 C368.486184,328.494373 373.337955,328.914717 377.313486,327.923554 C381.315034,326.864643 384.501732,324.686357 386.872965,321.387948 C389.269689,318.02017 390.904217,313.699639 391.768963,308.446219 C392.649245,303.149699 392.843432,297.296515 392.339835,290.918883 C391.859129,284.831144 390.766223,279.245594 389.052056,274.188065 C387.325897,269.165128 385.334179,264.653709 383.076112,260.656476 C380.805196,256.697377 378.361417,253.187715 375.746016,250.124385 C373.119668,247.094925 370.71727,244.451233 368.541907,242.183652 C366.35993,239.936963 364.501791,237.989476 362.969773,236.333676 C361.434319,234.688727 360.605028,233.331839 360.48444,232.254853 C360.348779,231.043243 360.546162,230.101827 361.077315,229.428656 C361.609429,228.752923 362.265929,228.277398 363.046661,228.002688 C363.828122,227.726243 364.671862,227.549958 365.577742,227.474377 C366.484129,227.397793 367.242181,227.356099 367.85167,227.349827 C368.969514,227.337566 370.043947,227.394144 371.074725,227.520267 C372.105712,227.646341 373.035102,227.773716 373.862832,227.902504 C374.89434,228.028568 375.82416,228.156043 376.65223,228.285037 L373.037095,188.771691 C370.778755,188.607763 368.468415,188.450571 366.106137,188.299958 C364.075016,188.251592 361.778071,188.198018 359.215705,188.138943 C356.654974,188.078928 354.114992,188.185592 351.596872,188.455527 C346.779504,188.95751 342.365493,190.2227 338.36237,192.226371 C334.381185,194.17704 331.067863,196.757448 328.423082,199.961411 C325.800975,203.104525 323.977923,206.896664 322.949325,211.34819 C321.937114,215.752914 321.900776,220.781166 322.828075,226.468103 C323.656724,231.550047 325.081606,236.093897 327.095158,240.123274 C329.098523,244.184041 331.395543,247.908336 333.985173,251.300577 C336.563,254.730167 339.219491,257.83728 341.956335,260.617669 C344.683356,263.429908 347.225219,266.031824 349.584067,268.416847 C351.935707,270.825093 353.89454,273.010264 355.462997,274.96455 C357.027338,276.93168 357.912903,278.77493 358.122822,280.484698 C358.671842,284.956399 356.763177,286.79404 352.402348,285.988173 C349.940819,285.527077 347.478809,284.875876 345.014737,284.038887 C342.551046,283.203606 340.328792,282.295276 338.346824,281.316262 C336.005386,280.393312 333.72889,279.308912 331.515984,278.066558 Z" id="Combined-Shape" fill="#000000"></path>
        </g>
    </g>
</svg>